<svg class='logo' width="108" height="38" viewBox="0 0 108 38" xmlns="http://www.w3.org/2000/svg">
    <path fill-rule="evenodd" clip-rule="evenodd" d="M99.1601 34.0593H8.64769L19.6014 19.516H30.0747V26.5531C30.0747 27.0713 30.5049 27.4914 31.0356 27.4914H33.726C34.2566 27.4914 34.6868 27.0713 34.6868 26.5531V19.516H39.395C39.395 23.9207 43.0516 27.4914 47.5623 27.4914H48.5231C53.5644 27.4914 57.6512 23.5006 57.6512 18.5778V15.6959C57.6512 15.3702 57.3808 15.1062 57.0473 15.1062H44.1993C44.1993 9.25059 49.0604 4.5037 55.0569 4.5037H62.1673V26.5531C62.1673 27.0713 62.5974 27.4914 63.1281 27.4914H65.8185C66.3492 27.4914 66.7794 27.0713 66.7794 26.5531V19.2346L70.7939 23.1547C73.6374 25.9314 77.4941 27.4914 81.5154 27.4914C81.8145 27.4914 82.0569 27.2546 82.0569 26.9626V23.4218C82.0569 23.2338 81.9009 23.0815 81.7085 23.0815C79.1599 23.0815 76.7125 22.1078 74.8896 20.3686L69.3737 15.1062H74.3221C78.5939 15.1062 82.0569 11.7245 82.0569 7.55309C82.0569 3.38163 78.5939 0 74.3221 0H54.8648C46.3211 0 39.395 6.76326 39.395 15.1062H34.6868V0.938272C34.6868 0.420079 34.2566 0 33.726 0H29.0243C28.7182 0 28.4304 0.142392 28.2494 0.383411L0 38H108L100.601 27.8843C100.42 27.6377 100.129 27.4914 99.8187 27.4914H96.1487C95.363 27.4914 94.9094 28.3621 95.3721 28.9821L99.1601 34.0593ZM86.8612 1.0321C86.8612 0.513905 87.2914 0.0938272 87.8221 0.0938272H90.7046C91.2353 0.0938272 91.6655 0.513906 91.6655 1.0321V26.5531C91.6655 27.0713 91.2353 27.4914 90.7046 27.4914H87.8221C87.2914 27.4914 86.8612 27.0713 86.8612 26.5531V1.0321ZM67.3643 4.59753C67.2004 4.59753 67.0676 4.72722 67.0676 4.88721V10.3128C67.0676 10.4728 67.2004 10.6025 67.3643 10.6025H74.1779C75.8761 10.6025 77.2527 9.25822 77.2527 7.6C77.2527 5.94178 75.8761 4.59753 74.1779 4.59753H67.3643ZM52.847 19.4222C52.847 21.2877 51.2983 22.8 49.3879 22.8H47.5576C45.7029 22.8 44.1993 21.3318 44.1993 19.5206C44.1993 19.4663 44.2444 19.4222 44.3 19.4222H52.847ZM29.9786 14.2617V7.36622C29.9786 6.82048 29.2632 6.59399 28.9353 7.03594L23.8193 13.9314C23.5432 14.3037 23.8155 14.8247 24.2862 14.8247H29.4021C29.7205 14.8247 29.9786 14.5726 29.9786 14.2617Z" fill="#000000"/>
</svg>