<svg width="33" height="33" viewBox="0 0 33 33" fill="none" xmlns="http://www.w3.org/2000/svg">
<g clip-path="url(#clip0_931_22)">
<path d="M18.164 18.4793L19.0221 17.625H17.8113H7.375C7.14294 17.625 6.92038 17.5328 6.75628 17.3687C6.59219 17.2046 6.5 16.9821 6.5 16.75C6.5 16.5179 6.59219 16.2954 6.75628 16.1313C6.92038 15.9672 7.14294 15.875 7.375 15.875H17.8113H19.0221L18.164 15.0207L15.0023 11.8727C15.0023 11.8727 15.0022 11.8726 15.0022 11.8726C14.9205 11.7908 14.8556 11.6938 14.8114 11.587C14.7672 11.4802 14.7444 11.3656 14.7444 11.25C14.7444 11.1344 14.7672 11.0198 14.8114 10.913C14.8557 10.8062 14.9205 10.7091 15.0023 10.6273C15.0841 10.5455 15.1812 10.4807 15.288 10.4364C15.3948 10.3922 15.5094 10.3694 15.625 10.3694C15.7406 10.3694 15.8552 10.3922 15.962 10.4364C16.0688 10.4807 16.1659 10.5455 16.2477 10.6273L21.7434 16.123C21.8215 16.2055 21.8828 16.3023 21.9238 16.4083L21.9237 16.4083L21.9275 16.4175C22.015 16.6305 22.015 16.8695 21.9275 17.0825L21.9274 17.0825L21.9238 17.0917C21.8828 17.1977 21.8215 17.2945 21.7434 17.377L16.2477 22.8727L16.2463 22.8741C16.1649 22.9562 16.0681 23.0213 15.9615 23.0657C15.8549 23.1101 15.7405 23.133 15.625 23.133C15.5095 23.133 15.3951 23.1101 15.2885 23.0657C15.1819 23.0213 15.0851 22.9562 15.0037 22.8741L15.0009 22.8712C14.9188 22.7899 14.8537 22.6931 14.8093 22.5865C14.7649 22.4799 14.742 22.3655 14.742 22.25C14.742 22.1345 14.7649 22.0201 14.8093 21.9135C14.8537 21.8069 14.9188 21.7101 15.0009 21.6287L15.0015 21.6281L18.164 18.4793ZM10.125 3.5H23.875C24.8364 3.5 25.7584 3.88192 26.4383 4.56174C27.1181 5.24156 27.5 6.16359 27.5 7.125V26.375C27.5 27.3364 27.1181 28.2584 26.4383 28.9383C25.7584 29.6181 24.8364 30 23.875 30H10.125C9.16359 30 8.24156 29.6181 7.56174 28.9383C6.88192 28.2584 6.5 27.3364 6.5 26.375V22.25C6.5 22.0179 6.59219 21.7954 6.75628 21.6313C6.92038 21.4672 7.14294 21.375 7.375 21.375C7.60706 21.375 7.82962 21.4672 7.99372 21.6313C8.15781 21.7954 8.25 22.0179 8.25 22.25V26.375C8.25 26.8723 8.44754 27.3492 8.79918 27.7008C9.15081 28.0525 9.62772 28.25 10.125 28.25H23.875C24.3723 28.25 24.8492 28.0525 25.2008 27.7008C25.5525 27.3492 25.75 26.8723 25.75 26.375V7.125C25.75 6.62772 25.5525 6.15081 25.2008 5.79918C24.8492 5.44754 24.3723 5.25 23.875 5.25H10.125C9.62772 5.25 9.15081 5.44754 8.79918 5.79918C8.44754 6.15081 8.25 6.62772 8.25 7.125V11.25C8.25 11.4821 8.15781 11.7046 7.99372 11.8687C7.82962 12.0328 7.60706 12.125 7.375 12.125C7.14294 12.125 6.92038 12.0328 6.75628 11.8687C6.59219 11.7046 6.5 11.4821 6.5 11.25V7.125C6.5 6.16359 6.88192 5.24156 7.56174 4.56174C8.24156 3.88192 9.16359 3.5 10.125 3.5Z" fill="#115173" stroke="#115173"/>
</g>
<defs>
<clipPath id="clip0_931_22">
<rect width="33" height="33" fill="white"/>
</clipPath>
</defs>
</svg>
