<svg width="33" height="33" viewBox="0 0 33 33" fill="none" xmlns="http://www.w3.org/2000/svg">
<path d="M30.25 5.76923H24V4.57692C24 3.62826 23.6049 2.71846 22.9017 2.04766C22.1984 1.37685 21.2446 1 20.25 1H12.75C11.7554 1 10.8016 1.37685 10.0983 2.04766C9.39509 2.71846 9 3.62826 9 4.57692V5.76923H2.75C2.41848 5.76923 2.10054 5.89485 1.86612 6.11845C1.6317 6.34205 1.5 6.64532 1.5 6.96154C1.5 7.27776 1.6317 7.58103 1.86612 7.80463C2.10054 8.02823 2.41848 8.15385 2.75 8.15385H4V29.6154C4 30.2478 4.26339 30.8544 4.73223 31.3016C5.20107 31.7488 5.83696 32 6.5 32H26.5C27.163 32 27.7989 31.7488 28.2678 31.3016C28.7366 30.8544 29 30.2478 29 29.6154V8.15385H30.25C30.5815 8.15385 30.8995 8.02823 31.1339 7.80463C31.3683 7.58103 31.5 7.27776 31.5 6.96154C31.5 6.64532 31.3683 6.34205 31.1339 6.11845C30.8995 5.89485 30.5815 5.76923 30.25 5.76923ZM11.5 4.57692C11.5 4.2607 11.6317 3.95744 11.8661 3.73383C12.1005 3.51023 12.4185 3.38462 12.75 3.38462H20.25C20.5815 3.38462 20.8995 3.51023 21.1339 3.73383C21.3683 3.95744 21.5 4.2607 21.5 4.57692V5.76923H11.5V4.57692ZM26.5 29.6154H6.5V8.15385H26.5V29.6154ZM14 14.1154V23.6538C14 23.9701 13.8683 24.2733 13.6339 24.4969C13.3995 24.7205 13.0815 24.8462 12.75 24.8462C12.4185 24.8462 12.1005 24.7205 11.8661 24.4969C11.6317 24.2733 11.5 23.9701 11.5 23.6538V14.1154C11.5 13.7992 11.6317 13.4959 11.8661 13.2723C12.1005 13.0487 12.4185 12.9231 12.75 12.9231C13.0815 12.9231 13.3995 13.0487 13.6339 13.2723C13.8683 13.4959 14 13.7992 14 14.1154ZM21.5 14.1154V23.6538C21.5 23.9701 21.3683 24.2733 21.1339 24.4969C20.8995 24.7205 20.5815 24.8462 20.25 24.8462C19.9185 24.8462 19.6005 24.7205 19.3661 24.4969C19.1317 24.2733 19 23.9701 19 23.6538V14.1154C19 13.7992 19.1317 13.4959 19.3661 13.2723C19.6005 13.0487 19.9185 12.9231 20.25 12.9231C20.5815 12.9231 20.8995 13.0487 21.1339 13.2723C21.3683 13.4959 21.5 13.7992 21.5 14.1154Z" fill="#115173"/>
</svg>
